<?xml version="1.0" encoding="utf-8"?>
<!-- Generator: Adobe Illustrator 27.7.0, SVG Export Plug-In . SVG Version: 6.00 Build 0)  -->
<svg version="1.1" id="Layer_1" xmlns="http://www.w3.org/2000/svg" xmlns:xlink="http://www.w3.org/1999/xlink" x="0px" y="0px"
	 viewBox="0 0 2000 1500" style="enable-background:new 0 0 2000 1500;" xml:space="preserve">
<style type="text/css">
	.st0{fill-rule:evenodd;clip-rule:evenodd;}
</style>
<g>
	<g>
		<path d="M312.5,970.98h40.48l32.06,112.17l32.88-112.17h39.94l32.6,112.17l32.33-112.17h40.48l-48.36,162.64h-43.47l-33.41-112.89
			l-33.96,112.89h-43.2L312.5,970.98z"/>
		<path d="M691.23,1012.35c38.04,0,69.82,27.98,69.82,61.47c0,34.44-31.79,62.18-69.82,62.18c-38.85,0-70.37-27.75-70.37-62.18
			C620.87,1040.34,652.38,1012.35,691.23,1012.35z M691.5,1107.55c22.01,0,32.06-17.7,32.06-33.72c0-15.55-10.05-33.01-32.06-33.01
			c-22.55,0-33.42,17.46-33.42,33.01C658.08,1089.85,668.95,1107.55,691.5,1107.55z"/>
		<path d="M873.81,1014.51v15.07c9.51-10.05,22.27-16.74,37.76-16.74c4.89,0,9.78,0.72,14.94,1.91v30.86
			c-4.62-0.96-8.97-1.44-13.31-1.44c-16.57,0-31.52,6.7-39.39,18.18v71.28h-36.14v-119.11H873.81z"/>
		<path d="M1036.55,970.98v89.69l44.28-46.16h42.39l-52.71,53.81l58.42,65.3h-41.3l-38.85-43.05l-12.22,12.92v30.14h-35.87V970.98
			H1036.55z"/>
		<path d="M1255.79,1012.35c38.04,0,69.82,27.98,69.82,61.47c0,34.44-31.79,62.18-69.82,62.18c-38.85,0-70.37-27.75-70.37-62.18
			C1185.43,1040.34,1216.95,1012.35,1255.79,1012.35z M1256.07,1107.55c22.01,0,32.06-17.7,32.06-33.72
			c0-15.55-10.05-33.01-32.06-33.01c-22.55,0-33.42,17.46-33.42,33.01C1222.65,1089.85,1233.51,1107.55,1256.07,1107.55z"/>
		<path d="M1439.72,1014.51v69.36c0,18.18,10.33,22.01,20.11,22.01c11.95,0,21.74-4.06,29.61-12.44v-78.93h36.14v119.11h-36.14
			v-14.83c-9.78,9.81-23.64,16.98-42.11,16.98c-25.81,0-45.1-16.98-45.1-38.98v-82.28H1439.72z"/>
		<path d="M1610.07,970.98h36.14v43.53h41.3v27.27h-41.3v40.42c0,15.07,3.8,24.39,18.2,24.39c5.16,0,19.56-0.72,23.09-1.43v28.46
			c-6.52,1.19-22.55,2.15-27.44,2.15c-35.05-0.24-49.99-19.38-49.99-53.81V970.98z"/>
	</g>
	<g>
		<path class="st0" d="M999.99,567.12c0.25,0,52.27,30.21,356.07,205.64c0-102.78,0-308.42,0-411.13l-89.03-51.43v308.35
			L999.99,464.33L732.97,618.54V310.19l-89.03,51.43c0,102.71,0,308.35,0,411.13C949.09,596.53,928.51,608.4,999.99,567.12z"/>
		<g>
			<polygon class="st0" points="1006.14,351.6 1006.14,248.82 828.14,351.53 828.14,454.31 			"/>
			<polygon class="st0" points="1007.12,916.9 1184.16,812.52 1183.2,709.67 1006.15,814.12 			"/>
			<polygon class="st0" points="1006.14,248.82 1184.16,351.53 1184.16,454.31 1006.14,351.6 			"/>
			<polygon class="st0" points="1007.12,916.9 828.14,815.86 827.18,713.02 1006.15,814.12 			"/>
			<polygon class="st0" points="892.96,416.89 938.74,463.07 874,500.45 828.13,454.32 828.13,351.52 			"/>
			<path class="st0" d="M1184.16,812.52l-64.78-65.19L985.19,612.32l14.83-8.57c10.43,6.03,26.63,15.38,50.04,28.9
				c29.99,17.33,72.72,42.01,133.01,76.9l0.14,0.14L1184.16,812.52z"/>
		</g>
	</g>
	<g>
		<path d="M674.98,1245.48v-9.43c6.34,2.79,19.04,6.63,31.21,6.63c14.15,0,22.74-4.31,22.74-11.87c0-18.62-53.16-12.69-53.16-39.7
			c0-12.22,10.98-20.72,33.06-20.72c14.15,0,23.53,3.84,27.77,6.63v8.5c-6.48-3.38-15.47-6.75-26.97-6.75c-15.6,0-23,5.7-23,12.69
			c0,18.4,53.42,12.57,53.42,38.88c0,8.73-5.69,20.84-33.59,20.84C693.35,1251.18,681.32,1247.92,674.98,1245.48z"/>
		<path d="M778.67,1221.96c0-15.95,14.54-28.98,32.53-28.98c12.82,0,23,6.05,28.16,15.25l-7.67,3.96
			c-3.84-6.17-11.37-11.41-20.49-11.41c-13.35,0-22.61,10.13-22.61,21.19c0,10.94,9.26,21.42,22.61,21.42
			c9.52,0,17.32-5.7,20.89-12.57l7.67,3.96c-4.63,9.78-15.34,16.29-28.56,16.29C793.21,1251.06,778.67,1238.14,778.67,1221.96z"/>
		<path d="M900.74,1217.77l18.51-0.11v-2.79c0-9.66-6.35-14.67-16.92-14.67c-7.94,0-14.81,3.38-19.04,6.98l-4.63-5.58
			c5.55-5.01,13.89-8.61,24.73-8.61c14.68,0,25.52,6.98,25.52,20.6v36.78h-9.65v-6.87c-4.63,4.54-11.11,7.56-21.69,7.56
			c-12.03,0-22.08-4.77-22.08-16.29C875.48,1222.78,886.72,1217.77,900.74,1217.77z M885.4,1234.07c0,7.57,6.87,10.24,14.81,10.24
			c10.45,0,15.74-4.43,19.04-10.36v-9.31h-17.19C893.07,1224.64,885.4,1226.15,885.4,1234.07z"/>
		<path d="M976.79,1193.68h9.65v11.06c4.63-5.94,12.3-11.76,23.93-11.76c13.22,0,21.69,8.96,21.69,20.14v37.25h-9.91v-34.8
			c0-10.71-6.62-14.44-14.94-14.44c-10.19,0-16.53,7.1-20.76,13.97v35.27h-9.65V1193.68z"/>
		<path d="M1080.35,1193.68h9.65v11.06c4.63-5.94,12.3-11.76,23.93-11.76c13.22,0,21.69,8.96,21.69,20.14v37.25h-9.91v-34.8
			c0-10.71-6.62-14.44-14.94-14.44c-10.19,0-16.53,7.1-20.76,13.97v35.27h-9.65V1193.68z"/>
		<path d="M1210.75,1192.98c17.85,0,31.47,11.99,32.13,29.1v4.31h-53.82c0.66,9.66,10.58,17.35,22.35,17.35
			c8.59,0,16.13-4.54,20.23-10.24l7.8,3.38c-5.69,8.38-15.47,14.2-28.17,14.2c-19.57,0-32.79-12.92-32.79-29.1
			C1178.49,1206.02,1193.17,1192.98,1210.75,1192.98z M1232.7,1219.17c-0.66-10.24-9.52-18.74-21.55-18.74
			c-12.3,0-21.55,8.38-22.21,18.74H1232.7z"/>
		<path d="M1295.4,1193.68v10.59c5.16-6.63,13.09-11.06,22.61-11.06c2.25,0,4.63,0.23,7.01,0.81v8.27c-2.12-0.46-4.23-0.7-6.48-0.7
			c-9.39,0-18.78,4.54-23.14,14.43v34.34h-9.65v-56.69H1295.4z"/>
	</g>
</g>
</svg>
