<svg width="65" height="64" viewBox="0 0 65 64" fill="none" xmlns="http://www.w3.org/2000/svg">
<path d="M13.86 8C10.02 8 8.5 9.44 8.5 13.04V50.96C8.5 54.56 10.02 56 13.86 56H23.54C27.3533 56 28.9 54.56 28.9 50.96V13.04C28.9 9.44 27.38 8 23.54 8" stroke="#B4F40C" stroke-width="5" stroke-linecap="round" stroke-linejoin="round"/>
<path d="M51.1396 56C54.9529 56 56.4996 54.56 56.4996 50.96V13.04C56.4996 9.44 54.9796 8 51.1396 8H41.4596C37.6463 8 36.0996 9.44 36.0996 13.04V50.96C36.0996 54.56 37.6196 56 41.4596 56" stroke="#B4F40C" stroke-width="5" stroke-linecap="round" stroke-linejoin="round"/>
</svg>
